<svg width="18" height="18" viewBox="0 0 18 18" fill="none" xmlns="http://www.w3.org/2000/svg">
<path d="M14.25 10.1886V7.49609C14.25 5.08109 12.6075 3.05084 10.3912 2.43959C10.1662 1.88609 9.63373 1.49609 8.99623 1.49609C8.35873 1.49609 7.81874 1.88609 7.60124 2.43959C5.38124 3.04709 3.74249 5.07959 3.74249 7.49609V10.1811L2.45999 11.4561C2.31749 11.5911 2.23499 11.7861 2.23499 11.9811V13.4811C2.23499 13.8936 2.56499 14.2311 2.98499 14.2311H14.985C15.3975 14.2311 15.735 13.8936 15.735 13.4811V11.9811C15.735 11.7816 15.6525 11.5911 15.51 11.4486L14.2275 10.1661L14.25 10.1886ZM14.25 12.7461H3.74999V12.3036L5.02499 11.0211C5.15999 10.8786 5.24249 10.6836 5.24249 10.4886V7.48859C5.24249 5.41859 6.92249 3.73859 8.99249 3.73859C11.055 3.73859 12.7425 5.41859 12.7425 7.48859V10.4886C12.7425 10.6881 12.8175 10.8786 12.96 11.0136L14.235 12.2886V12.7236L14.25 12.7461ZM8.99999 16.4961C9.98324 16.4961 10.8052 15.8661 11.1075 14.9961H6.87749C7.18499 15.8661 8.00249 16.4961 8.98499 16.4961H8.99999Z" fill="#132430"/>
</svg>
