<svg width="28" height="28" viewBox="0 0 28 28" fill="none" xmlns="http://www.w3.org/2000/svg">
<path d="M15.2194 1.16602V2.91602C20.5219 2.91602 24.8444 7.22977 24.8444 12.541H26.5944C26.5944 6.26902 21.4844 1.16602 15.2194 1.16602ZM6.16314 3.79102C5.69939 3.79102 5.24439 3.93977 4.86814 4.23727L4.82439 4.26352L2.06814 7.09852L2.12064 7.03727C1.20189 7.81602 0.956886 9.05852 1.34189 10.0998C2.07689 12.2173 3.95814 16.3298 7.65939 20.0398C11.3694 23.7585 15.5256 25.5523 17.5819 26.3573H17.5994H17.6169C18.6756 26.7073 19.8219 26.4535 20.6444 25.7535L20.6619 25.7273L23.3963 22.9929C24.1138 22.2666 24.1138 20.9891 23.3963 20.2629L19.8088 16.6666C19.0738 15.9316 17.805 15.9316 17.0788 16.6666L15.3375 18.3991C14.7075 18.1016 13.185 17.3316 11.7325 15.9404C10.2975 14.5666 9.56251 12.9829 9.30001 12.3791L11.05 10.6291C11.8113 9.85914 11.855 8.53789 10.9713 7.83789L11.05 7.90789L7.41876 4.18914L7.37501 4.15414C6.99876 3.84789 6.53501 3.69914 6.08001 3.69914L6.16314 3.79102ZM15.2106 4.65727V6.40727C18.5794 6.40727 21.3356 9.15477 21.3356 12.5323H23.0856C23.0856 8.18352 19.5506 4.65727 15.2106 4.65727ZM6.15439 5.53227C6.21564 5.52352 6.27689 5.54977 6.33814 5.60227L9.89064 9.24227L9.92564 9.26852C9.90814 9.25977 9.95189 9.33852 9.84689 9.44352L7.25689 12.0248L7.44939 12.5498C7.44939 12.5498 8.42939 15.2273 10.5469 17.2398C12.6206 19.2173 15.1756 20.2935 15.1756 20.2935L15.7181 20.521L18.3169 17.9135C18.4569 17.7648 18.4219 17.7648 18.5619 17.9135L22.1406 21.501C22.2894 21.6498 22.2894 21.5973 22.1406 21.746L19.4719 24.406C19.0606 24.7473 18.6406 24.8348 18.1419 24.6685C16.1556 23.8898 12.2881 22.1923 8.84939 18.7535C5.38439 15.2885 3.59064 11.3598 2.92564 9.45227L2.91689 9.43477L2.90814 9.41727C2.76814 9.05852 2.86439 8.55102 3.17939 8.28852L3.20564 8.26227L5.87439 5.50602C5.92689 5.45352 5.99689 5.43602 6.05814 5.42727L6.15439 5.53227ZM15.2019 8.15727V9.90727C16.6456 9.90727 17.8269 11.085 17.8269 12.5323H19.5769C19.5769 10.1173 17.6081 8.15727 15.2019 8.15727Z" fill="#F7F4EF"/>
</svg>
