<svg width="32" height="32" viewBox="0 0 32 32" fill="none" xmlns="http://www.w3.org/2000/svg">
<path d="M11.46 5.0007C7.89999 5.0007 4.98999 7.9107 4.98999 11.4607V20.5207C4.98999 24.0707 7.89999 26.9807 11.45 26.9807H20.51C24.06 26.9807 26.97 24.0607 26.97 20.5107V11.4407C26.97 7.8807 24.05 4.9707 20.5 4.9707L11.46 5.0007ZM11.46 7.0007H20.52C22.99 7.0007 24.98 8.9907 24.98 11.4607V20.5207C24.98 22.9907 22.98 24.9807 20.51 24.9807H11.44C8.95999 24.9807 6.96999 22.9807 6.96999 20.5107V11.4407C6.96999 8.9607 8.95999 6.9707 11.43 6.9707L11.46 7.0007ZM21.89 9.1807C21.38 9.1807 20.98 9.5807 20.98 10.0807C20.98 10.5807 21.38 10.9807 21.88 10.9807C22.38 10.9807 22.78 10.5707 22.78 10.0707C22.78 9.5607 22.37 9.1607 21.87 9.1607L21.89 9.1807ZM15.98 9.9907C12.67 9.9907 9.97999 12.6807 9.97999 15.9907C9.97999 19.2907 12.67 21.9907 15.98 21.9907C19.28 21.9907 21.98 19.2907 21.98 15.9907C21.98 12.6807 19.28 9.9907 15.98 9.9907ZM15.98 11.9907C18.2 11.9907 19.98 13.7607 19.98 15.9907C19.98 18.2107 18.2 19.9907 15.98 19.9907C13.75 19.9907 11.98 18.2107 11.98 15.9907C11.98 13.7607 13.75 11.9907 15.98 11.9907Z" fill="#F7F4EF"/>
</svg>
