<svg width="140" height="26" viewBox="0 0 140 26" fill="none" xmlns="http://www.w3.org/2000/svg">
<path d="M19.168 18.4075H24.32C22.464 22.7275 18.272 25.4155 13.408 25.4155C6.496 25.4155 0.959999 19.9435 0.959999 13.0955C0.959999 6.40755 6.432 0.935547 13.12 0.935547C16 0.935547 18.784 1.89555 20.96 3.65555C22.56 4.96755 23.392 6.08755 24.32 8.13555H19.424C17.824 6.05555 15.968 5.15955 13.216 5.15955C10.816 5.15955 8.768 6.05555 7.328 7.75155C6.112 9.15955 5.376 11.2075 5.376 13.1275C5.376 17.5435 8.928 21.1915 13.312 21.1915C15.584 21.1915 17.216 20.4235 19.168 18.4075Z" fill="#132430"/>
<path d="M24.599 24.9995L34.455 1.35155H37.911L47.831 24.9995H42.999L40.471 18.8875H32.055L29.431 24.9995H24.599ZM33.655 14.6955H38.711L36.183 7.52755L33.655 14.6955Z" fill="#132430"/>
<path d="M50.2385 24.9995V1.35155H56.2545L62.6225 19.2715L68.9265 1.35155H74.9425V24.9995H70.5585V7.27155L64.3825 24.9995H60.7985L54.6225 7.27155V24.9995H50.2385Z" fill="#132430"/>
<path d="M79.051 24.9995V1.35155H91.755V5.54355H83.435V11.1115H91.403V15.3035H83.435V20.8075H91.755V24.9995H79.051Z" fill="#132430"/>
<path d="M95.676 24.9995V1.35155H100.06V20.8075H107.292V24.9995H95.676Z" fill="#132430"/>
<path d="M109.77 24.9995V1.35155H114.154V24.9995H109.77Z" fill="#132430"/>
<path d="M116.568 24.9995L126.424 1.35155H129.88L139.8 24.9995H134.968L132.44 18.8875H124.024L121.4 24.9995H116.568ZM125.624 14.6955H130.68L128.152 7.52755L125.624 14.6955Z" fill="#132430"/>
</svg>
