<svg width="18" height="18" viewBox="0 0 18 18" fill="none" xmlns="http://www.w3.org/2000/svg">
<path d="M12.42 16.4998H12.435C12.825 16.4998 13.2 16.3423 13.485 16.0573L15.5175 14.0173C15.81 13.7173 15.81 13.2448 15.5175 12.9523L12.5175 9.95233C12.2175 9.65908 11.745 9.65908 11.4525 9.95233L10.2525 11.1448C9.69751 10.9798 8.66251 10.6048 8.00251 9.94483C7.34251 9.28483 6.96751 8.25508 6.80251 7.69483L7.99501 6.49483C8.28751 6.20158 8.28751 5.72233 7.99501 5.42983L4.99501 2.42983C4.71376 2.14858 4.21501 2.14858 3.93001 2.42983L1.89001 4.45558C1.60501 4.74058 1.44001 5.13058 1.44751 5.52808C1.46251 6.59308 1.74751 10.3056 4.67101 13.2231C7.58851 16.1406 11.301 16.4256 12.366 16.4406L12.42 16.4998ZM4.49251 4.04308L6.42751 5.97808L5.45251 6.94558C5.27251 7.11808 5.19001 7.38058 5.24251 7.62808C5.25751 7.71058 5.70001 9.75808 6.94501 11.0031C8.19001 12.2481 10.23 12.6883 10.32 12.7056C10.5675 12.7581 10.8225 12.6756 11.0025 12.4956L11.97 11.5206L13.905 13.4556L12.3975 14.9556C11.46 14.9331 8.25751 14.6856 5.73751 12.1656C3.21001 9.63808 2.96251 6.42733 2.94751 5.50558L4.44751 4.00558L4.49251 4.04308ZM14.985 8.23558H16.485C16.485 4.38808 13.575 1.48633 9.72751 1.48633V2.98633C12.7725 2.98633 14.985 5.19133 14.985 8.22883V8.23558Z" fill="#132430"/>
<path d="M9.74249 6C11.3175 6 11.9925 6.6675 11.9925 8.25H13.4925C13.4925 5.8275 12.1575 4.5 9.74249 4.5V6Z" fill="#132430"/>
</svg>
