<svg width="32" height="32" viewBox="0 0 32 32" fill="none" xmlns="http://www.w3.org/2000/svg">
<path d="M8.5 4.00094C5.46 4.00094 3 6.46094 3 9.50094C3 12.5309 5.46 15.0009 8.5 15.0009C9.31 15.0009 10.07 14.7909 10.78 14.4609L15.99 21.3359V26.9859H11.99V28.9859H21.99V26.9859H17.99V21.3259L26.8 9.69094L26.98 9.40094V7.96094H13.73C13.12 5.63094 10.96 3.96094 8.48 3.96094L8.5 4.00094ZM8.5 6.00094C9.89 6.00094 11.08 6.83094 11.625 8.00094H7V9.43094L7.18 9.71094L9.52 12.8009C9.17 12.9209 8.82 12.9809 8.48 12.9809C6.51 12.9809 4.98 11.4409 4.98 9.48094C4.98 7.51094 6.51 5.98094 8.48 5.98094L8.5 6.00094ZM9.93 10.0009H24.05L22.55 12.0009H13.48L14.98 14.0009H21.01L16.97 19.3409L9.93 10.0009Z" fill="#BC9E59"/>
</svg>
