<svg width="32" height="32" viewBox="0 0 32 32" fill="none" xmlns="http://www.w3.org/2000/svg">
<path d="M12 4.00023C10.34 4.00023 9 5.34023 9 7.00023V19.6252L10 18.9052L11 19.6152V6.99023C11 6.43023 11.44 5.99023 12 5.99023H13V3.99023L12 4.00023ZM24 4.00023C22.34 4.00023 21 5.34023 21 7.00023V8.00023H12V10.0002H21V12.0002H12V14.0002H21V16.0002H12V18.0002H21V19.6252L22 18.9052L23 19.6152V6.99023C23 6.43023 23.44 5.99023 24 5.99023H25V3.99023L24 4.00023ZM10 20.7102L9.37 21.2102C9.37 21.2102 8.36 21.9902 7.02 21.9902C5.68 21.9902 4.61 21.2002 4.61 21.2002L3.36 22.7602C3.36 22.7602 4.9 23.9702 7.01 23.9702C8.47 23.9702 9.4 23.4802 9.97 23.1202C10.55 23.4702 11.52 23.9602 13 23.9602C14.46 23.9602 15.39 23.4702 15.96 23.1102C16.54 23.4602 17.51 23.9502 18.99 23.9502C20.45 23.9502 21.38 23.4602 21.95 23.1002C22.53 23.4502 23.5 23.9402 24.98 23.9402C27.09 23.9402 28.57 22.7202 28.57 22.7202L27.32 21.1502C27.32 21.1502 26.31 21.9302 24.97 21.9302C23.63 21.9302 22.56 21.1402 22.56 21.1402L21.935 20.6402L21.31 21.1402C21.31 21.1402 20.3 21.9202 18.96 21.9202C17.62 21.9202 16.55 21.1302 16.55 21.1302L15.925 20.6302L15.295 21.1302C15.295 21.1302 14.285 21.9102 12.945 21.9102C11.605 21.9102 10.535 21.1202 10.535 21.1202L10 20.7102ZM10 24.7102L9.37 25.2102C9.37 25.2102 8.36 25.9902 7.02 25.9902C5.68 25.9902 4.61 25.2002 4.61 25.2002L3.36 26.7602C3.36 26.7602 4.9 27.9702 7.01 27.9702C8.47 27.9702 9.4 27.4802 9.97 27.1202C10.55 27.4702 11.52 27.9602 13 27.9602C14.46 27.9602 15.39 27.4702 15.96 27.1102C16.54 27.4602 17.51 27.9502 18.99 27.9502C20.45 27.9502 21.38 27.4602 21.95 27.1002C22.53 27.4502 23.5 27.9402 24.98 27.9402C27.09 27.9402 28.57 26.7202 28.57 26.7202L27.32 25.1502C27.32 25.1502 26.31 25.9302 24.97 25.9302C23.63 25.9302 22.56 25.1402 22.56 25.1402L21.935 24.6402L21.31 25.1402C21.31 25.1402 20.3 25.9202 18.96 25.9202C17.62 25.9202 16.55 25.1302 16.55 25.1302L15.925 24.6302L15.295 25.1302C15.295 25.1302 14.285 25.9102 12.945 25.9102C11.605 25.9102 10.535 25.1202 10.535 25.1202L10 24.7102Z" fill="#BC9E59"/>
</svg>
