<svg width="32" height="32" viewBox="0 0 32 32" fill="none" xmlns="http://www.w3.org/2000/svg">
<path d="M16 7.0007C10.98 7.0007 6.44999 9.0807 3.17999 12.4007L4.57999 13.8007C7.47999 10.8307 11.52 8.9807 15.98 8.9807C20.44 8.9807 24.48 10.8307 27.38 13.7907L28.78 12.3807C25.51 9.0507 20.98 6.9707 15.96 6.9707L16 7.0007ZM16 12.0007C12.35 12.0007 9.07999 13.5107 6.70999 15.9307L8.10999 17.3307C10.11 15.2707 12.89 13.9807 15.985 13.9807C19.065 13.9807 21.86 15.2607 23.86 17.3207L25.26 15.9107C22.89 13.4907 19.61 11.9707 15.97 11.9707L16 12.0007ZM16 17.0007C13.73 17.0007 11.7 17.9507 10.25 19.4607L11.65 20.8607C12.74 19.7107 14.28 18.9857 15.99 18.9857C17.7 18.9857 19.24 19.7057 20.33 20.8607L21.73 19.4507C20.27 17.9307 18.24 16.9807 15.98 16.9807L16 17.0007ZM16 22.0007C15.11 22.0007 14.33 22.3907 13.78 23.0007L15.99 25.2107L18.2 22.9907C17.64 22.3807 16.86 21.9907 15.98 21.9907L16 22.0007Z" fill="#BC9E59"/>
</svg>
