<svg width="32" height="32" viewBox="0 0 32 32" fill="none" xmlns="http://www.w3.org/2000/svg">
<path d="M16 3.99922C15.83 3.99922 15.68 4.01922 15.53 4.02922C10.83 4.25922 6.98999 7.83922 6.98999 12.3392C6.98999 15.2792 8.76999 17.8692 10.45 19.7392C12.12 21.5992 13.79 22.7992 13.79 22.7992L14.07 22.9792H17.88L18.16 22.7892C18.16 22.7892 19.82 21.5892 21.5 19.7192C23.17 17.8492 24.96 15.2592 24.96 12.3092C24.96 7.79922 21.11 4.20922 16.39 3.98922C16.24 3.96922 16.1 3.94922 15.95 3.94922L16 3.99922ZM16 5.99922C16.27 5.99922 17.11 6.30922 17.78 7.14922C18.44 7.98922 18.99 9.31922 18.99 11.2092C18.99 15.5192 16.71 20.2192 16.33 20.9892H15.64C15.25 20.2092 12.98 15.4992 12.98 11.1992C12.98 9.36922 13.55 8.02922 14.23 7.15922C14.9 6.28922 15.73 5.96922 15.98 5.96922L16 5.99922ZM11.9 7.20922C11.36 8.28922 10.99 9.62922 10.99 11.2092C10.99 14.0892 11.85 17.0392 12.67 19.2092C12.42 18.9592 12.18 18.6892 11.92 18.3892C10.4 16.6892 8.97999 14.4292 8.97999 12.3192C8.97999 10.2092 10.12 8.34922 11.88 7.19422L11.9 7.20922ZM20.15 7.23922C21.88 8.39922 22.99 10.2492 22.99 12.3292C22.99 14.4292 21.57 16.6992 20.05 18.3892C19.78 18.6792 19.54 18.9192 19.3 19.1692C20.11 16.9992 20.98 14.0692 20.98 11.1992C20.98 9.61922 20.64 8.29922 20.13 7.22922L20.15 7.23922ZM13.99 24.9892V27.9892H17.99V24.9892H13.99Z" fill="#BC9E59"/>
</svg>
