<svg width="32" height="32" viewBox="0 0 32 32" fill="none" xmlns="http://www.w3.org/2000/svg">
<path d="M27 3.99914C18.19 3.99914 13.79 8.78914 11.68 11.0891L8.63 14.1591C6.92 15.8491 5.99 18.1091 5.99 20.5191V21.9791L8.01 19.9491C8.14 18.2891 8.84 16.7491 10.02 15.5591L13.13 12.4091C14.96 10.3991 18.69 6.32914 25.94 5.97914C25.71 10.4991 24.05 13.6491 22.34 15.8291L18.96 16.9491H21.37C20.67 17.6991 20.01 18.3091 19.5 18.7791L18.51 19.7491L14.94 20.9291H17.3L16.34 21.8691C15.01 23.1891 13.26 23.9191 11.39 23.9191H9.34L18.63 14.6191L17.21 13.1991L3.91 26.4891L5.32 27.8991L7.32 25.8891H11.36C13.76 25.8891 16.02 24.9491 17.72 23.2391L20.79 20.1891C23.09 18.0691 27.89 13.6791 27.89 4.86914V3.86914H26.89L27 3.99914Z" fill="#BC9E59"/>
</svg>
