<svg width="296" height="38" viewBox="0 0 296 38" fill="none" xmlns="http://www.w3.org/2000/svg">
<path d="M25.4375 31.1445C24.9955 31.1185 24.3845 31.0535 23.6045 30.9495C22.8245 30.8715 22.0315 30.7025 21.2255 30.4425C20.4195 30.1825 19.7435 29.8055 19.1975 29.3115C18.6515 28.8435 18.3785 28.2195 18.3785 27.4395C18.3785 26.5815 18.6385 25.8015 19.1585 25.0995C19.7045 24.3715 20.4195 23.7345 21.3035 23.1885C22.1875 22.6165 23.1625 22.1225 24.2285 21.7065C25.2945 21.2905 26.3605 20.9525 27.4265 20.6925C26.6205 20.5105 25.8665 20.2635 25.1645 19.9515C24.4625 19.6395 23.8905 19.2105 23.4485 18.6645C23.0065 18.1185 22.7855 17.4295 22.7855 16.5975C22.7855 15.6095 23.0975 14.6605 23.7215 13.7505C24.3455 12.8145 25.1255 11.9305 26.0615 11.0985C27.0235 10.2665 27.9855 9.52549 28.9475 8.87549C26.8935 8.40749 24.6185 8.01749 22.1225 7.70549C19.6525 7.36749 16.7405 7.19849 13.3865 7.19849C10.5005 7.19849 8.08248 7.54949 6.13248 8.25149C4.18248 8.92749 2.81748 9.99349 2.03748 11.4495C1.90748 11.6835 1.84248 11.9435 1.84248 12.2295C1.84248 12.8795 2.12848 13.5425 2.70048 14.2185C3.29848 14.8685 4.03948 15.4665 4.92348 16.0125C5.80748 16.5585 6.66548 16.9745 7.49748 17.2605C7.54948 17.2865 7.71848 17.3645 8.00448 17.4945C8.31648 17.5985 8.65448 17.7285 9.01848 17.8845C9.38248 18.0405 9.69448 18.1965 9.95448 18.3525C10.2145 18.4825 10.3445 18.5735 10.3445 18.6255C10.3445 18.6775 10.2925 18.7555 10.1885 18.8595C10.0845 18.9375 9.91548 18.9765 9.68148 18.9765C8.84948 18.9765 7.90048 18.7815 6.83448 18.3915C5.79448 18.0015 4.78048 17.4685 3.79248 16.7925C2.83048 16.1165 2.03748 15.3365 1.41348 14.4525C0.763477 13.5425 0.438477 12.5805 0.438477 11.5665C0.438477 11.1245 0.542477 10.6695 0.750477 10.2015C1.68648 8.32949 3.24648 7.02949 5.43048 6.30149C7.61448 5.57349 10.2275 5.20949 13.2695 5.20949C14.8555 5.20949 16.3635 5.28749 17.7935 5.44349C19.2235 5.59948 20.6275 5.80749 22.0055 6.06749C23.3835 6.32749 24.7485 6.63949 26.1005 7.00349C27.4525 7.36749 28.8435 7.73149 30.2735 8.09549C31.2355 7.57549 32.2365 7.10748 33.2765 6.69149C34.3425 6.24948 35.4085 5.85948 36.4745 5.52148C37.2805 5.26148 38.5285 4.97549 40.2185 4.66349C41.9345 4.35149 43.8455 4.19549 45.9515 4.19549C46.2375 4.19549 46.5235 4.19549 46.8095 4.19549C47.1215 4.19549 47.4205 4.20849 47.7065 4.23448C49.0585 4.31249 50.3195 4.49449 51.4895 4.78048C52.6855 5.04049 53.6475 5.45649 54.3755 6.02848C55.1295 6.60049 55.5065 7.38049 55.5065 8.36848C55.5065 9.59049 54.8565 10.5655 53.5565 11.2935C52.2825 12.0215 50.5535 12.3855 48.3695 12.3855C48.1615 12.3855 47.9535 12.3855 47.7455 12.3855C47.5375 12.3855 47.3295 12.3725 47.1215 12.3465C45.7695 12.2685 44.2355 12.0995 42.5195 11.8395C40.8035 11.5535 38.9835 11.2025 37.0595 10.7865C36.2015 10.6045 35.3435 10.4095 34.4855 10.2015C33.6535 9.99349 32.7955 9.77249 31.9115 9.53849C29.7015 10.8905 27.9855 12.2685 26.7635 13.6725C25.5415 15.0765 24.9305 16.1945 24.9305 17.0265C24.9305 17.8325 25.3595 18.5475 26.2175 19.1715C27.1015 19.7695 28.4795 20.0945 30.3515 20.1465C30.9755 20.0945 31.4565 20.0425 31.7945 19.9905C32.1325 19.9385 32.4315 19.8995 32.6915 19.8735C32.9775 19.8475 33.2505 19.8215 33.5105 19.7955C33.7965 19.7435 34.1865 19.6785 34.6805 19.6005C35.0445 19.6005 35.2525 19.7045 35.3045 19.9125C35.3825 20.1205 35.3955 20.3285 35.3435 20.5365C35.1615 20.9005 34.9015 21.1605 34.5635 21.3165C34.2255 21.4465 33.8615 21.5115 33.4715 21.5115C33.1075 21.5115 32.7435 21.4725 32.3795 21.3945C32.0415 21.3165 31.7555 21.2385 31.5215 21.1605C30.6635 21.1865 29.6755 21.3165 28.5575 21.5505C27.4395 21.7845 26.2825 22.2135 25.0865 22.8375C23.5785 23.6435 22.4865 24.4105 21.8105 25.1385C21.1345 25.8405 20.7965 26.4515 20.7965 26.9715C20.7965 27.6215 21.0825 28.1285 21.6545 28.4925C22.2525 28.8565 22.9545 29.1165 23.7605 29.2725C24.5665 29.4285 25.2945 29.5325 25.9445 29.5845C26.1785 29.6105 26.4125 29.6235 26.6465 29.6235C26.8805 29.6235 27.1145 29.6235 27.3485 29.6235C29.8965 29.6235 32.5355 29.2985 35.2655 28.6485C37.9955 27.9725 40.6605 26.9585 43.2605 25.6065C45.8865 24.2285 48.3175 22.4995 50.5535 20.4195C50.6575 20.3675 50.7225 20.3415 50.7485 20.3415C50.8785 20.3415 50.9695 20.4065 51.0215 20.5365C51.0475 20.5625 51.0605 20.6145 51.0605 20.6925C51.0605 20.8225 51.0215 20.9265 50.9435 21.0045C49.2535 22.8245 47.3295 24.3975 45.1715 25.7235C43.0135 27.0235 40.7645 28.0895 38.4245 28.9215C36.1105 29.7535 33.8355 30.3515 31.5995 30.7155C29.3635 31.0795 27.3095 31.2225 25.4375 31.1445ZM46.2245 11.1765C46.4325 11.2025 46.6405 11.2155 46.8485 11.2155C47.0825 11.2155 47.2905 11.2155 47.4725 11.2155C49.1625 11.2155 50.5275 11.0075 51.5675 10.5915C52.6075 10.1755 53.1795 9.56449 53.2835 8.75848C53.3095 8.65449 53.3225 8.51149 53.3225 8.32949C53.3225 7.36749 52.7895 6.66549 51.7235 6.22348C50.6575 5.75548 49.3055 5.48248 47.6675 5.40449C47.4335 5.37849 47.1995 5.36549 46.9655 5.36549C46.7575 5.36549 46.5365 5.36549 46.3025 5.36549C44.5865 5.36549 42.9875 5.49549 41.5055 5.75549C40.0495 6.01549 38.8405 6.32749 37.8785 6.69149C37.0205 7.00349 36.1885 7.34149 35.3825 7.70549C34.6025 8.04349 33.8485 8.42049 33.1205 8.83649C34.0305 9.04449 34.9535 9.26549 35.8895 9.49949C36.8255 9.73349 37.8135 9.95449 38.8535 10.1625C39.8935 10.3705 41.0635 10.5785 42.3635 10.7865C43.6635 10.9945 44.9505 11.1245 46.2245 11.1765Z" fill="#BC9E59"/>
<path d="M56.0388 16.1295C55.7268 16.1295 55.5058 16.0515 55.3758 15.8955C55.2458 15.7135 55.1808 15.4925 55.1808 15.2325C55.1808 14.9465 55.2328 14.6995 55.3368 14.4915C55.4408 14.2835 55.7138 14.1015 56.1558 13.9455C56.6238 13.7895 57.1178 13.6725 57.6378 13.5945C58.1838 13.5165 58.5998 13.4775 58.8858 13.4775C59.1978 13.4775 59.3538 13.5425 59.3538 13.6725C59.3538 13.7765 59.2888 13.8675 59.1588 13.9455C59.1068 13.9715 59.0288 14.0105 58.9248 14.0625C58.8468 14.1145 58.7428 14.1665 58.6128 14.2185C58.4308 14.2965 58.2228 14.4005 57.9888 14.5305C57.7808 14.6345 57.6508 14.7645 57.5988 14.9205C57.4428 15.2585 57.2218 15.5445 56.9358 15.7785C56.6498 16.0125 56.3508 16.1295 56.0388 16.1295ZM49.5648 29.3115C48.8368 29.3115 48.1738 29.1685 47.5758 28.8825C47.0038 28.5965 46.7178 28.0505 46.7178 27.2445C46.7178 26.4645 46.8998 25.7105 47.2638 24.9825C47.6278 24.2545 48.0828 23.5655 48.6288 22.9155C49.2008 22.2655 49.7468 21.6935 50.2668 21.1995C50.7088 20.8095 51.0598 20.4975 51.3198 20.2635C51.2938 20.2375 51.2808 20.1855 51.2808 20.1075C51.2808 19.8995 51.3718 19.6915 51.5538 19.4835C51.8398 19.0675 52.3078 18.7165 52.9578 18.4305C53.1138 18.3785 53.2698 18.3525 53.4258 18.3525C53.7638 18.3525 54.1018 18.4305 54.4398 18.5865C54.7778 18.7165 54.9468 18.9375 54.9468 19.2495C54.9468 19.4315 54.8818 19.6005 54.7518 19.7565C54.6218 19.9125 54.5048 20.0295 54.4008 20.1075C54.1928 20.2635 53.8678 20.5365 53.4258 20.9265C53.0098 21.2905 52.5548 21.7195 52.0608 22.2135C51.5668 22.6815 51.0858 23.1495 50.6178 23.6175C50.1758 24.0595 49.8378 24.4365 49.6038 24.7485C48.6938 25.9185 48.2388 26.8025 48.2388 27.4005C48.2388 27.6605 48.3428 27.8815 48.5508 28.0635C48.7848 28.2195 49.1878 28.2975 49.7598 28.2975C50.6698 28.2975 51.5668 28.1545 52.4508 27.8685C53.3608 27.5565 54.1928 27.2055 54.9468 26.8155C55.5708 26.5035 56.1558 26.1525 56.7018 25.7625C57.2738 25.3725 57.8328 24.9695 58.3788 24.5535C58.9248 24.1115 59.4708 23.6565 60.0168 23.1885C60.5888 22.7205 61.1608 22.2525 61.7328 21.7845C61.8108 21.7585 61.9018 21.7455 62.0058 21.7455C62.2138 21.7455 62.3178 21.8365 62.3178 22.0185C62.3178 22.1745 62.2528 22.3175 62.1228 22.4475C61.9668 22.6555 61.6418 22.9935 61.1478 23.4615C60.6538 23.9295 60.0428 24.4625 59.3148 25.0605C58.6128 25.6585 57.8198 26.2435 56.9358 26.8155C56.0518 27.3875 55.1418 27.8815 54.2058 28.2975C53.7118 28.5055 53.0228 28.7265 52.1388 28.9605C51.2548 29.1945 50.3968 29.3115 49.5648 29.3115Z" fill="#BC9E59"/>
<path d="M66.0051 29.7015C65.5111 29.7015 65.0301 29.6625 64.5621 29.5845C64.1201 29.5065 63.7171 29.3765 63.3531 29.1945C62.5211 28.7785 61.9621 28.1805 61.6761 27.4005C61.4161 26.6205 61.2861 25.8665 61.2861 25.1385C61.2861 24.8005 61.2991 24.4885 61.3251 24.2025C61.3771 23.9165 61.4161 23.6435 61.4421 23.3835C61.3641 23.4095 61.2991 23.4225 61.2471 23.4225C61.1951 23.3965 61.1431 23.3835 61.0911 23.3835C60.8571 23.3315 60.7401 23.2275 60.7401 23.0715C60.7401 22.9415 60.8051 22.8245 60.9351 22.7205C61.0131 22.6685 61.1301 22.5775 61.2861 22.4475C61.4681 22.2915 61.6111 22.1615 61.7151 22.0575C61.9231 21.3555 62.2351 20.4585 62.6511 19.3665C63.0671 18.2745 63.6521 17.0915 64.4061 15.8175C64.9781 14.8555 65.6931 13.7245 66.5511 12.4245C67.4091 11.1245 68.3841 9.79849 69.4761 8.44649C70.5681 7.06849 71.7251 5.79449 72.9471 4.62449C74.1691 3.42849 75.4171 2.46649 76.6911 1.73848C77.9911 1.01048 79.2781 0.646484 80.5521 0.646484C81.2281 0.646484 81.7221 0.841485 82.0341 1.23149C82.3461 1.59549 82.5021 2.08949 82.5021 2.71349C82.5021 3.59749 82.1771 4.71549 81.5271 6.06749C80.8511 7.47149 80.0061 8.79749 78.9921 10.0455C77.9781 11.2935 76.9381 12.4245 75.8721 13.4385C74.8061 14.4525 73.8571 15.3235 73.0251 16.0515C71.9851 16.9355 70.9711 17.7415 69.9831 18.4695C69.0211 19.1715 68.1241 19.7825 67.2921 20.3025C66.4861 20.8225 65.7451 21.2775 65.0691 21.6675C64.4191 22.0315 63.9121 22.3305 63.5481 22.5645C63.3141 23.2665 63.1971 24.0725 63.1971 24.9825C63.1971 25.9445 63.4051 26.7895 63.8211 27.5175C64.2631 28.2455 65.0431 28.6095 66.1611 28.6095C66.9671 28.6095 67.8121 28.4535 68.6961 28.1415C69.6061 27.8035 70.4251 27.4525 71.1531 27.0885C72.2451 26.5425 73.2981 25.9445 74.3121 25.2945C75.3261 24.6185 76.2231 23.9945 77.0031 23.4225C77.7831 22.8245 78.3421 22.3695 78.6801 22.0575C78.7841 21.9535 78.8751 21.9015 78.9531 21.9015C79.0311 21.8755 79.0831 21.8625 79.1091 21.8625C79.2391 21.9145 79.3041 22.0185 79.3041 22.1745C79.3041 22.4085 79.1741 22.6555 78.9141 22.9155C77.8481 23.9815 76.6781 25.0085 75.4041 25.9965C74.1301 26.9845 72.7781 27.8035 71.3481 28.4535C70.4901 28.8435 69.5931 29.1425 68.6571 29.3505C67.7471 29.5845 66.8631 29.7015 66.0051 29.7015ZM64.0941 20.9655C64.5881 20.6795 65.2901 20.2375 66.2001 19.6395C67.1361 19.0415 68.1501 18.3525 69.2421 17.5725C70.3341 16.7665 71.3611 15.9345 72.3231 15.0765C72.8171 14.6345 73.4151 14.0755 74.1171 13.3995C74.8451 12.6975 75.5861 11.9305 76.3401 11.0985C77.1201 10.2405 77.8351 9.35649 78.4851 8.44649C79.1611 7.51049 79.7071 6.58749 80.1231 5.67748C80.5391 4.74149 80.7471 3.87049 80.7471 3.06449C80.7471 2.70049 80.6691 2.45349 80.5131 2.32349C80.3831 2.16748 80.2011 2.08948 79.9671 2.08948C79.4991 2.08948 78.8751 2.32348 78.0951 2.79148C77.3411 3.23349 76.5221 3.81849 75.6381 4.54649C74.7541 5.27449 73.8961 6.08049 73.0641 6.96449C71.7901 8.31649 70.5551 9.85049 69.3591 11.5665C68.1891 13.2565 67.1491 14.9335 66.2391 16.5975C65.3291 18.2355 64.6141 19.6915 64.0941 20.9655Z" fill="#BC9E59"/>
<path d="M82.7065 29.5065C82.1085 29.5065 81.5365 29.4415 80.9905 29.3115C80.4445 29.1815 79.9505 28.9865 79.5085 28.7265C78.3645 27.9985 77.7925 27.0365 77.7925 25.8405C77.7925 24.9045 78.1045 23.9555 78.7285 22.9935C79.3785 22.0055 80.2105 21.0695 81.2245 20.1855C82.2385 19.3015 83.3045 18.5735 84.4225 18.0015C85.0985 17.6375 85.7745 17.3775 86.4505 17.2215C87.1265 17.0655 87.7245 16.9875 88.2445 16.9875C89.1545 16.9875 89.7525 17.1695 90.0385 17.5335C90.3505 17.8715 90.5065 18.2745 90.5065 18.7425C90.5065 19.2365 90.3505 19.7175 90.0385 20.1855C89.7265 20.6275 89.2845 21.0695 88.7125 21.5115C87.7245 22.3175 86.3725 23.0325 84.6565 23.6565C82.9665 24.2805 81.2245 24.7225 79.4305 24.9825C79.1705 25.5025 79.0405 25.9835 79.0405 26.4255C79.0925 27.1535 79.4695 27.6735 80.1715 27.9855C80.8995 28.2715 81.7055 28.4145 82.5895 28.4145C82.9015 28.4145 83.2005 28.4015 83.4865 28.3755C83.7725 28.3495 84.0455 28.3105 84.3055 28.2585C85.6055 27.9985 86.9315 27.5305 88.2835 26.8545C89.6615 26.1785 90.9875 25.3985 92.2615 24.5145C93.5355 23.6305 94.6795 22.7465 95.6935 21.8625C95.8495 21.8105 95.9535 21.7845 96.0055 21.7845C96.1875 21.7845 96.2785 21.8755 96.2785 22.0575C96.2785 22.1875 96.2265 22.3175 96.1225 22.4475C95.9405 22.7595 95.5635 23.1625 94.9915 23.6565C94.4455 24.1505 93.8215 24.6575 93.1195 25.1775C92.4175 25.6715 91.7285 26.1525 91.0525 26.6205C90.4025 27.0625 89.8565 27.4005 89.4145 27.6345C88.4785 28.1545 87.4125 28.5965 86.2165 28.9605C85.0205 29.3245 83.8505 29.5065 82.7065 29.5065ZM80.0935 23.8905C80.9255 23.6825 81.8875 23.4225 82.9795 23.1105C84.0715 22.7725 85.1115 22.3825 86.0995 21.9405C87.0875 21.4725 87.8285 20.9655 88.3225 20.4195C88.5305 20.2115 88.6735 20.0035 88.7515 19.7955C88.8295 19.5615 88.8685 19.3665 88.8685 19.2105C88.8685 19.0805 88.8165 18.9635 88.7125 18.8595C88.6345 18.7555 88.3745 18.7035 87.9325 18.7035C87.3085 18.7035 86.5025 18.9635 85.5145 19.4835C84.5265 19.9775 83.5385 20.6275 82.5505 21.4335C81.5885 22.2135 80.7695 23.0325 80.0935 23.8905Z" fill="#BC9E59"/>
<path d="M99.1978 29.5065C98.5998 29.5065 98.0278 29.4415 97.4818 29.3115C96.9358 29.1815 96.4417 28.9865 95.9997 28.7265C94.8557 27.9985 94.2838 27.0365 94.2838 25.8405C94.2838 24.9045 94.5957 23.9555 95.2197 22.9935C95.8697 22.0055 96.7018 21.0695 97.7158 20.1855C98.7298 19.3015 99.7957 18.5735 100.914 18.0015C101.59 17.6375 102.266 17.3775 102.942 17.2215C103.618 17.0655 104.216 16.9875 104.736 16.9875C105.646 16.9875 106.244 17.1695 106.53 17.5335C106.842 17.8715 106.998 18.2745 106.998 18.7425C106.998 19.2365 106.842 19.7175 106.53 20.1855C106.218 20.6275 105.776 21.0695 105.204 21.5115C104.216 22.3175 102.864 23.0325 101.148 23.6565C99.4578 24.2805 97.7158 24.7225 95.9218 24.9825C95.6618 25.5025 95.5318 25.9835 95.5318 26.4255C95.5838 27.1535 95.9607 27.6735 96.6628 27.9855C97.3908 28.2715 98.1967 28.4145 99.0807 28.4145C99.3927 28.4145 99.6918 28.4015 99.9778 28.3755C100.264 28.3495 100.537 28.3105 100.797 28.2585C102.097 27.9985 103.423 27.5305 104.775 26.8545C106.153 26.1785 107.479 25.3985 108.753 24.5145C110.027 23.6305 111.171 22.7465 112.185 21.8625C112.341 21.8105 112.445 21.7845 112.497 21.7845C112.679 21.7845 112.77 21.8755 112.77 22.0575C112.77 22.1875 112.718 22.3175 112.614 22.4475C112.432 22.7595 112.055 23.1625 111.483 23.6565C110.937 24.1505 110.313 24.6575 109.611 25.1775C108.909 25.6715 108.22 26.1525 107.544 26.6205C106.894 27.0625 106.348 27.4005 105.906 27.6345C104.97 28.1545 103.904 28.5965 102.708 28.9605C101.512 29.3245 100.342 29.5065 99.1978 29.5065ZM96.5847 23.8905C97.4167 23.6825 98.3787 23.4225 99.4707 23.1105C100.563 22.7725 101.603 22.3825 102.591 21.9405C103.579 21.4725 104.32 20.9655 104.814 20.4195C105.022 20.2115 105.165 20.0035 105.243 19.7955C105.321 19.5615 105.36 19.3665 105.36 19.2105C105.36 19.0805 105.308 18.9635 105.204 18.8595C105.126 18.7555 104.866 18.7035 104.424 18.7035C103.8 18.7035 102.994 18.9635 102.006 19.4835C101.018 19.9775 100.03 20.6275 99.0417 21.4335C98.0797 22.2135 97.2607 23.0325 96.5847 23.8905Z" fill="#BC9E59"/>
<path d="M108.318 30.2085C107.876 30.2085 107.655 30.0005 107.655 29.5845C107.655 29.3245 107.72 29.0385 107.85 28.7265C108.006 28.4145 108.188 28.0765 108.396 27.7125C108.734 27.1145 109.111 26.4905 109.527 25.8405C109.969 25.1905 110.346 24.6575 110.658 24.2415C110.918 23.9035 111.282 23.4225 111.75 22.7985C112.218 22.1745 112.66 21.5115 113.076 20.8095C113.648 19.8735 113.934 19.0935 113.934 18.4695C113.934 18.1315 113.83 17.8715 113.622 17.6895C113.518 17.5855 113.414 17.4685 113.31 17.3385C113.206 17.1825 113.154 17.0525 113.154 16.9485C113.154 16.6885 113.258 16.5585 113.466 16.5585C113.674 16.5585 113.869 16.6365 114.051 16.7925C114.233 16.8965 114.428 17.0395 114.636 17.2215C114.87 17.4035 115.078 17.6115 115.26 17.8455C115.338 17.9495 115.416 18.0535 115.494 18.1575C115.598 18.2355 115.676 18.3395 115.728 18.4695C115.806 18.5995 115.871 18.7425 115.923 18.8985C115.975 19.0285 116.001 19.1845 116.001 19.3665C116.001 19.7305 115.845 20.1725 115.533 20.6925C115.065 21.4985 114.506 22.2525 113.856 22.9545C113.232 23.6305 112.621 24.3065 112.023 24.9825C111.945 25.0865 111.854 25.1905 111.75 25.2945C111.672 25.3725 111.594 25.4635 111.516 25.5675C112.53 24.6315 113.622 23.6695 114.792 22.6815C115.988 21.6675 117.028 20.8745 117.912 20.3025C118.198 20.1205 118.575 19.9515 119.043 19.7955C119.511 19.6135 119.953 19.5225 120.369 19.5225C120.759 19.5225 121.097 19.6395 121.383 19.8735C121.695 20.0815 121.851 20.4845 121.851 21.0825C121.851 21.6025 121.747 22.2005 121.539 22.8765C121.331 23.5265 121.123 24.1245 120.915 24.6705C120.733 25.0865 120.59 25.4895 120.486 25.8795C120.382 26.2435 120.33 26.5685 120.33 26.8545C120.33 27.7645 120.824 28.2195 121.812 28.2195C122.072 28.2195 122.371 28.1935 122.709 28.1415C123.073 28.0635 123.463 27.9465 123.879 27.7905C125.205 27.2965 126.544 26.6075 127.896 25.7235C129.274 24.8395 130.509 23.9425 131.601 23.0325C131.731 22.9285 131.861 22.8375 131.991 22.7595C132.121 22.6555 132.238 22.5645 132.342 22.4865C132.472 22.3825 132.589 22.2915 132.693 22.2135C132.823 22.1095 132.966 21.9925 133.122 21.8625C133.278 21.8105 133.382 21.7845 133.434 21.7845C133.59 21.7845 133.668 21.8755 133.668 22.0575C133.668 22.2395 133.616 22.3955 133.512 22.5255C133.356 22.7335 132.979 23.1105 132.381 23.6565C131.783 24.2025 131.042 24.8135 130.158 25.4895C129.3 26.1655 128.351 26.8155 127.311 27.4395C126.297 28.0635 125.27 28.5575 124.23 28.9215C123.294 29.2335 122.319 29.3895 121.305 29.3895C120.525 29.3895 119.823 29.2075 119.199 28.8435C118.575 28.4795 118.263 27.8555 118.263 26.9715C118.263 26.4515 118.393 25.8405 118.653 25.1385C118.835 24.6705 119.03 24.1895 119.238 23.6955C119.472 23.2015 119.615 22.7075 119.667 22.2135C119.693 22.1095 119.706 22.0185 119.706 21.9405C119.706 21.8365 119.706 21.7585 119.706 21.7065C119.706 21.3945 119.654 21.1995 119.55 21.1215C119.472 21.0435 119.381 21.0045 119.277 21.0045C119.017 21.0045 118.692 21.1085 118.302 21.3165C117.938 21.4985 117.6 21.6935 117.288 21.9015C117.002 22.0835 116.547 22.4475 115.923 22.9935C115.325 23.5135 114.662 24.1115 113.934 24.7875C113.232 25.4375 112.556 26.0615 111.906 26.6595C111.49 27.0495 111.087 27.4525 110.697 27.8685C110.333 28.2585 109.995 28.6225 109.683 28.9605C109.345 29.3245 109.059 29.6235 108.825 29.8575C108.591 30.0915 108.422 30.2085 108.318 30.2085Z" fill="#BC9E59"/>
<path d="M164.9 37.6185C163.184 37.6185 161.91 37.1245 161.078 36.1365C160.246 35.1745 159.83 33.9915 159.83 32.5875C159.83 30.8715 160.376 29.1295 161.468 27.3615C161.572 27.2315 161.715 27.1015 161.897 26.9715C162.079 26.8415 162.235 26.7635 162.365 26.7375C162.391 26.7375 162.417 26.7375 162.443 26.7375C162.469 26.7115 162.495 26.6985 162.521 26.6985C162.677 26.6985 162.781 26.7635 162.833 26.8935C162.833 26.9195 162.833 26.9455 162.833 26.9715C162.859 26.9715 162.872 26.9845 162.872 27.0105C162.872 27.0885 162.807 27.2575 162.677 27.5175C162.079 28.4015 161.624 29.2595 161.312 30.0915C161.026 30.9235 160.883 31.7035 160.883 32.4315C160.883 33.6015 161.234 34.5245 161.936 35.2005C162.664 35.9025 163.704 36.1885 165.056 36.0585C165.992 35.9805 167.136 35.6035 168.488 34.9275C169.84 34.2775 171.257 33.4195 172.739 32.3535C174.221 31.2875 175.651 30.0915 177.029 28.7655C178.407 27.4135 179.59 25.9965 180.578 24.5145C179.408 24.2805 178.277 24.0075 177.185 23.6955C176.119 23.3575 175.235 22.9675 174.533 22.5255C174.039 22.2395 173.636 21.9015 173.324 21.5115C173.038 21.1215 172.895 20.7185 172.895 20.3025C172.895 19.9645 172.999 19.6525 173.207 19.3665C173.441 19.0285 173.766 18.7945 174.182 18.6645C174.598 18.5085 175.066 18.4305 175.586 18.4305C176.6 18.4305 177.77 18.6515 179.096 19.0935C180.422 19.5095 181.696 20.0035 182.918 20.5755C183.854 18.8855 184.621 17.2215 185.219 15.5835C185.843 13.9195 186.155 12.4115 186.155 11.0595C186.155 9.83749 185.856 8.75849 185.258 7.82248C184.66 6.88648 183.685 6.15848 182.333 5.63848C180.981 5.11849 179.161 4.85849 176.873 4.85849C175.521 4.85849 173.896 4.98849 171.998 5.24849C170.126 5.48249 168.137 5.85949 166.031 6.37949C163.951 6.89949 161.91 7.54949 159.908 8.32949C157.906 9.08349 156.086 9.98049 154.448 11.0205C152.836 12.0605 151.536 13.2435 150.548 14.5695C149.586 15.8695 149.105 17.3255 149.105 18.9375C149.105 19.8735 149.456 20.6665 150.158 21.3165C150.86 21.9405 151.731 22.4215 152.771 22.7595C153.837 23.0975 154.89 23.2665 155.93 23.2665C156.424 23.2665 156.905 23.2275 157.373 23.1495C157.477 23.1235 157.568 23.1105 157.646 23.1105C157.724 23.1105 157.802 23.1105 157.88 23.1105C158.426 23.1105 158.699 23.1755 158.699 23.3055C158.725 23.3575 158.608 23.4745 158.348 23.6565C158.114 23.8125 157.672 23.9815 157.022 24.1635C156.814 24.2155 156.476 24.2675 156.008 24.3195C155.566 24.3455 155.124 24.3715 154.682 24.3975C154.266 24.4235 153.967 24.4365 153.785 24.4365C152.875 24.4365 151.952 24.2285 151.016 23.8125C150.08 23.3705 149.3 22.7465 148.676 21.9405C148.052 21.1345 147.74 20.1465 147.74 18.9765C147.74 16.9745 148.195 15.2065 149.105 13.6725C150.041 12.1125 151.289 10.7735 152.849 9.65549C154.409 8.51149 156.177 7.54949 158.153 6.76948C160.129 5.98949 162.183 5.37849 164.315 4.93648C166.447 4.46848 168.54 4.13049 170.594 3.92249C172.648 3.71449 174.52 3.61049 176.21 3.61049C180.37 3.61049 183.451 4.26049 185.453 5.56049C187.481 6.83449 188.495 8.71949 188.495 11.2155C188.495 12.6975 188.157 14.3485 187.481 16.1685C186.831 17.9885 185.973 19.7955 184.907 21.5895C185.817 22.0575 186.623 22.5255 187.325 22.9935C188.027 23.4355 188.586 23.8385 189.002 24.2025C189.262 24.2285 189.6 24.2545 190.016 24.2805C190.458 24.3065 190.939 24.3195 191.459 24.3195C191.693 24.3195 191.927 24.3195 192.161 24.3195C192.395 24.3195 192.629 24.3065 192.863 24.2805C193.357 22.8505 193.955 21.2515 194.657 19.4835C195.359 17.6895 196.139 15.8565 196.997 13.9845C197.855 12.0865 198.765 10.2535 199.727 8.48549C200.715 6.71749 201.742 5.14449 202.808 3.76649C203.302 3.11649 203.835 2.57049 204.407 2.12849C204.979 1.66049 205.746 1.42649 206.708 1.42649C207.176 1.42649 207.566 1.66049 207.878 2.12849C208.19 2.59649 208.32 3.33749 208.268 4.35149C208.242 4.53349 208.19 4.68949 208.112 4.81949C208.06 4.94949 207.969 5.02749 207.839 5.05349H207.8C207.514 5.05349 207.371 4.88449 207.371 4.54649C207.371 3.66249 207.202 3.22049 206.864 3.22049C206.604 3.22049 206.227 3.46749 205.733 3.96149C205.421 4.27348 205.096 4.63749 204.758 5.05349C204.446 5.44349 204.186 5.79449 203.978 6.10649C203.77 6.39249 203.653 6.56149 203.627 6.61349C202.873 7.60149 202.067 8.84949 201.209 10.3575C200.377 11.8655 199.558 13.4645 198.752 15.1545C197.946 16.8445 197.205 18.4825 196.529 20.0685C195.853 21.6545 195.294 23.0195 194.852 24.1635C195.918 24.0335 196.893 23.8515 197.777 23.6175C198.687 23.3835 199.402 23.0715 199.922 22.6815C200.468 22.2915 200.715 21.7975 200.663 21.1995V21.1605C200.663 20.7705 200.793 20.5755 201.053 20.5755C201.339 20.5755 201.482 20.8485 201.482 21.3945C201.482 22.1485 201.118 22.7855 200.39 23.3055C199.688 23.7995 198.804 24.1895 197.738 24.4755C196.672 24.7615 195.593 24.9825 194.501 25.1385C194.397 25.3985 194.319 25.8015 194.267 26.3475C194.241 26.8675 194.228 27.4135 194.228 27.9855C194.228 28.5055 194.254 28.9995 194.306 29.4675C194.358 29.9355 194.436 30.2735 194.54 30.4815C194.618 30.5855 194.657 30.7025 194.657 30.8325C194.657 31.1185 194.488 31.3525 194.15 31.5345C193.812 31.7425 193.461 31.8465 193.097 31.8465C192.837 31.8465 192.603 31.7945 192.395 31.6905C192.187 31.5865 192.044 31.4175 191.966 31.1835C191.862 30.8195 191.667 30.3255 191.381 29.7015C191.095 29.1035 190.757 28.4925 190.367 27.8685C190.003 27.2185 189.639 26.6725 189.275 26.2305C188.911 25.7625 188.612 25.5155 188.378 25.4895C188.118 25.4635 187.429 25.4115 186.311 25.3335C185.219 25.2295 183.984 25.0735 182.606 24.8655C181.228 26.8935 179.746 28.6875 178.16 30.2475C176.574 31.8335 174.975 33.1725 173.363 34.2645C171.751 35.3565 170.217 36.1885 168.761 36.7605C167.305 37.3325 166.018 37.6185 164.9 37.6185ZM181.514 22.9545C181.644 22.7465 181.787 22.5385 181.943 22.3305C182.099 22.0965 182.229 21.8625 182.333 21.6285C181.345 21.1865 180.318 20.7965 179.252 20.4585C178.212 20.1205 177.237 19.9125 176.327 19.8345H176.093C175.755 19.8345 175.521 19.8865 175.391 19.9905C175.261 20.0945 175.196 20.1985 175.196 20.3025C175.196 20.4845 175.352 20.7055 175.664 20.9655C175.976 21.2255 176.496 21.4985 177.224 21.7845C177.666 21.9405 178.277 22.1225 179.057 22.3305C179.837 22.5385 180.656 22.7465 181.514 22.9545ZM186.935 24.0855C186.623 23.8775 186.233 23.6435 185.765 23.3835C185.323 23.0975 184.829 22.8245 184.283 22.5645C184.179 22.7205 184.075 22.8765 183.971 23.0325C183.867 23.1625 183.763 23.3055 183.659 23.4615C184.309 23.6175 184.907 23.7475 185.453 23.8515C186.025 23.9555 186.519 24.0335 186.935 24.0855ZM192.122 28.3755C192.148 27.8815 192.2 27.3615 192.278 26.8155C192.356 26.2435 192.447 25.7495 192.551 25.3335C192.057 25.3595 191.602 25.3855 191.186 25.4115C190.796 25.4115 190.432 25.4115 190.094 25.4115C190.38 25.7495 190.705 26.2045 191.069 26.7765C191.459 27.3225 191.81 27.8555 192.122 28.3755Z" fill="#BC9E59"/>
<path d="M204.375 29.7015C203.413 29.7015 202.711 29.4415 202.269 28.9215C201.827 28.4015 201.606 27.8165 201.606 27.1665C201.606 26.9585 201.619 26.7635 201.645 26.5815C201.697 26.3735 201.749 26.1655 201.801 25.9575C201.983 25.4375 202.308 24.8005 202.776 24.0465C203.27 23.2925 203.816 22.5775 204.414 21.9015C205.012 21.1995 205.584 20.6925 206.13 20.3805C205.87 20.0945 205.74 19.7435 205.74 19.3275C205.74 18.3915 206.468 17.7025 207.924 17.2605C208.288 17.1305 208.678 17.0525 209.094 17.0265C209.536 16.9745 209.991 16.9485 210.459 16.9485C211.057 16.9485 211.642 16.9875 212.214 17.0655C213.046 17.1955 213.774 17.5595 214.398 18.1575C215.022 18.7295 215.386 19.4315 215.49 20.2635C215.542 20.5495 215.542 20.8355 215.49 21.1215C215.906 21.1475 216.309 21.1605 216.699 21.1605C217.115 21.1345 217.492 21.1215 217.83 21.1215C218.61 21.1215 219.403 21.0695 220.209 20.9655C221.041 20.8355 221.795 20.6925 222.471 20.5365C223.173 20.3545 223.693 20.1725 224.031 19.9905C224.239 19.9125 224.395 19.8735 224.499 19.8735C224.707 19.8735 224.837 19.9515 224.889 20.1075C224.889 20.3675 224.642 20.6145 224.148 20.8485C223.576 21.1085 222.705 21.3685 221.535 21.6285C220.365 21.8885 219.13 22.0445 217.83 22.0965C217.518 22.1225 217.141 22.1485 216.699 22.1745C216.283 22.1745 215.815 22.1745 215.295 22.1745C215.009 23.2145 214.45 24.1895 213.618 25.0995C212.812 26.0095 211.863 26.8155 210.771 27.5175C209.679 28.1935 208.561 28.7265 207.417 29.1165C206.299 29.5065 205.285 29.7015 204.375 29.7015ZM214.086 21.0435C214.216 20.6535 214.281 20.3155 214.281 20.0295C214.281 19.5615 214.086 19.1585 213.696 18.8205C213.332 18.4825 212.63 18.3135 211.59 18.3135C210.524 18.3135 209.627 18.4695 208.899 18.7815C208.197 19.0675 207.846 19.3275 207.846 19.5615C207.846 19.6135 207.898 19.6915 208.002 19.7955C208.106 19.8995 208.314 20.0035 208.626 20.1075C209.458 20.3675 210.342 20.5755 211.278 20.7315C212.214 20.8875 213.15 20.9915 214.086 21.0435ZM205.116 28.5705C205.61 28.4665 206.221 28.2325 206.949 27.8685C207.703 27.5045 208.483 27.0495 209.289 26.5035C210.121 25.9315 210.888 25.3075 211.59 24.6315C212.318 23.9815 212.981 23.1495 213.579 22.1355C212.617 22.1355 211.668 22.1225 210.732 22.0965C209.822 22.0705 209.003 21.8885 208.275 21.5505C207.963 21.5765 207.521 21.8235 206.949 22.2915C206.377 22.7335 205.805 23.2925 205.233 23.9685C204.661 24.6445 204.167 25.3335 203.751 26.0355C203.361 26.7115 203.166 27.2965 203.166 27.7905C203.166 28.0245 203.244 28.2325 203.4 28.4145C203.582 28.5705 203.894 28.6485 204.336 28.6485C204.44 28.6485 204.557 28.6485 204.687 28.6485C204.817 28.6225 204.96 28.5965 205.116 28.5705Z" fill="#BC9E59"/>
<path d="M226.652 29.7015C226.158 29.7015 225.677 29.6625 225.209 29.5845C224.767 29.5065 224.364 29.3765 224 29.1945C223.168 28.7785 222.609 28.1805 222.323 27.4005C222.063 26.6205 221.933 25.8665 221.933 25.1385C221.933 24.8005 221.946 24.4885 221.972 24.2025C222.024 23.9165 222.063 23.6435 222.089 23.3835C222.011 23.4095 221.946 23.4225 221.894 23.4225C221.842 23.3965 221.79 23.3835 221.738 23.3835C221.504 23.3315 221.387 23.2275 221.387 23.0715C221.387 22.9415 221.452 22.8245 221.582 22.7205C221.66 22.6685 221.777 22.5775 221.933 22.4475C222.115 22.2915 222.258 22.1615 222.362 22.0575C222.57 21.3555 222.882 20.4585 223.298 19.3665C223.714 18.2745 224.299 17.0915 225.053 15.8175C225.625 14.8555 226.34 13.7245 227.198 12.4245C228.056 11.1245 229.031 9.79849 230.123 8.44649C231.215 7.06849 232.372 5.79449 233.594 4.62449C234.816 3.42849 236.064 2.46649 237.338 1.73848C238.638 1.01048 239.925 0.646484 241.199 0.646484C241.875 0.646484 242.369 0.841485 242.681 1.23149C242.993 1.59549 243.149 2.08949 243.149 2.71349C243.149 3.59749 242.824 4.71549 242.174 6.06749C241.498 7.47149 240.653 8.79749 239.639 10.0455C238.625 11.2935 237.585 12.4245 236.519 13.4385C235.453 14.4525 234.504 15.3235 233.672 16.0515C232.632 16.9355 231.618 17.7415 230.63 18.4695C229.668 19.1715 228.771 19.7825 227.939 20.3025C227.133 20.8225 226.392 21.2775 225.716 21.6675C225.066 22.0315 224.559 22.3305 224.195 22.5645C223.961 23.2665 223.844 24.0725 223.844 24.9825C223.844 25.9445 224.052 26.7895 224.468 27.5175C224.91 28.2455 225.69 28.6095 226.808 28.6095C227.614 28.6095 228.459 28.4535 229.343 28.1415C230.253 27.8035 231.072 27.4525 231.8 27.0885C232.892 26.5425 233.945 25.9445 234.959 25.2945C235.973 24.6185 236.87 23.9945 237.65 23.4225C238.43 22.8245 238.989 22.3695 239.327 22.0575C239.431 21.9535 239.522 21.9015 239.6 21.9015C239.678 21.8755 239.73 21.8625 239.756 21.8625C239.886 21.9145 239.951 22.0185 239.951 22.1745C239.951 22.4085 239.821 22.6555 239.561 22.9155C238.495 23.9815 237.325 25.0085 236.051 25.9965C234.777 26.9845 233.425 27.8035 231.995 28.4535C231.137 28.8435 230.24 29.1425 229.304 29.3505C228.394 29.5845 227.51 29.7015 226.652 29.7015ZM224.741 20.9655C225.235 20.6795 225.937 20.2375 226.847 19.6395C227.783 19.0415 228.797 18.3525 229.889 17.5725C230.981 16.7665 232.008 15.9345 232.97 15.0765C233.464 14.6345 234.062 14.0755 234.764 13.3995C235.492 12.6975 236.233 11.9305 236.987 11.0985C237.767 10.2405 238.482 9.35649 239.132 8.44649C239.808 7.51049 240.354 6.58749 240.77 5.67748C241.186 4.74149 241.394 3.87049 241.394 3.06449C241.394 2.70049 241.316 2.45349 241.16 2.32349C241.03 2.16748 240.848 2.08948 240.614 2.08948C240.146 2.08948 239.522 2.32348 238.742 2.79148C237.988 3.23349 237.169 3.81849 236.285 4.54649C235.401 5.27449 234.543 6.08049 233.711 6.96449C232.437 8.31649 231.202 9.85049 230.006 11.5665C228.836 13.2565 227.796 14.9335 226.886 16.5975C225.976 18.2355 225.261 19.6915 224.741 20.9655Z" fill="#BC9E59"/>
<path d="M249.671 34.5375C248.449 34.5375 247.578 34.0825 247.058 33.1725C246.564 32.2625 246.317 31.1705 246.317 29.8965C246.317 28.9865 246.421 28.0375 246.629 27.0495C246.837 26.0355 247.11 25.0475 247.448 24.0855C247.006 24.5535 246.46 25.0865 245.81 25.6845C245.16 26.2565 244.445 26.8285 243.665 27.4005C242.911 27.9465 242.144 28.4015 241.364 28.7655C240.61 29.1295 239.895 29.3115 239.219 29.3115C238.413 29.3115 237.737 29.0125 237.191 28.4145C236.827 28.0245 236.645 27.5175 236.645 26.8935C236.645 26.1395 236.905 25.3075 237.425 24.3975C237.945 23.4875 238.621 22.5905 239.453 21.7065C240.285 20.8225 241.182 20.0425 242.144 19.3665C243.106 18.6905 244.029 18.2095 244.913 17.9235C245.823 17.6115 246.577 17.4555 247.175 17.4555C247.851 17.4555 248.371 17.5855 248.735 17.8455C249.125 18.0795 249.424 18.3655 249.632 18.7035C249.84 19.0415 249.996 19.3535 250.1 19.6395C250.594 18.9375 251.101 18.1965 251.621 17.4165C252.141 16.6365 252.687 15.8565 253.259 15.0765C254.091 13.8805 254.975 12.7235 255.911 11.6055C256.847 10.4875 257.796 9.48649 258.758 8.60249C259.2 8.21249 259.616 8.01748 260.006 8.01748C260.214 8.01748 260.409 8.08248 260.591 8.21248C260.981 8.49849 261.332 8.83649 261.644 9.22649C261.956 9.59049 262.112 9.94149 262.112 10.2795C262.112 10.3835 262.073 10.5005 261.995 10.6305C261.839 10.8645 261.696 10.9815 261.566 10.9815C261.462 10.9555 261.384 10.9165 261.332 10.8645C261.306 10.8125 261.28 10.7475 261.254 10.6695C261.228 10.5655 261.202 10.4745 261.176 10.3965C261.15 10.1885 261.033 10.0845 260.825 10.0845C260.591 10.0845 260.318 10.2015 260.006 10.4355C259.694 10.6435 259.486 10.7865 259.382 10.8645C258.836 11.3065 258.199 11.9305 257.471 12.7365C256.743 13.5425 256.015 14.4135 255.287 15.3495C254.559 16.2855 253.909 17.1695 253.337 18.0015C251.959 19.9775 250.867 21.8105 250.061 23.5005C249.255 25.1905 248.67 26.9975 248.306 28.9215C248.254 29.2595 248.202 29.5845 248.15 29.8965C248.124 30.2085 248.111 30.5075 248.111 30.7935C248.111 31.5995 248.254 32.2365 248.54 32.7045C248.826 33.1725 249.268 33.4065 249.866 33.4065C250.204 33.4065 250.568 33.3545 250.958 33.2505C251.4 33.0945 251.881 32.8215 252.401 32.4315C252.921 32.0675 253.428 31.6645 253.922 31.2225C254.442 30.7805 254.871 30.3645 255.209 29.9745C255.287 29.8965 255.378 29.8575 255.482 29.8575C255.612 29.8575 255.69 29.9095 255.716 30.0135C255.794 30.1955 255.794 30.3515 255.716 30.4815C255.69 30.5335 255.638 30.6115 255.56 30.7155C255.482 30.8455 255.391 30.9755 255.287 31.1055C254.845 31.7815 254.312 32.3925 253.688 32.9385C253.064 33.4845 252.362 33.9005 251.582 34.1865C250.88 34.4205 250.243 34.5375 249.671 34.5375ZM238.478 27.1275C238.478 27.5435 238.556 27.8295 238.712 27.9855C238.894 28.1155 239.115 28.1805 239.375 28.1805C239.791 28.1805 240.259 28.0635 240.779 27.8295C241.299 27.5695 241.793 27.2835 242.261 26.9715C242.729 26.6335 243.067 26.3735 243.275 26.1915C244.081 25.5155 244.991 24.7615 246.005 23.9295C247.045 23.0975 247.968 22.3175 248.774 21.5895C248.904 21.3815 249.047 21.1735 249.203 20.9655C249.359 20.7575 249.515 20.5365 249.671 20.3025C249.645 20.3025 249.619 20.3155 249.593 20.3415C249.567 20.3415 249.541 20.3415 249.515 20.3415C249.255 20.3415 249.125 20.2115 249.125 19.9515C249.125 19.9255 249.06 19.7955 248.93 19.5615C248.826 19.3275 248.449 19.2105 247.799 19.2105C247.201 19.2105 246.499 19.3795 245.693 19.7175C244.913 20.0555 244.12 20.5105 243.314 21.0825C242.508 21.6285 241.754 22.2395 241.052 22.9155C240.35 23.5915 239.765 24.2675 239.297 24.9435C238.855 25.5935 238.595 26.1785 238.517 26.6985C238.491 26.7765 238.478 26.8545 238.478 26.9325C238.478 27.0105 238.478 27.0755 238.478 27.1275Z" fill="#BC9E59"/>
<path d="M261.025 29.5065C260.427 29.5065 259.855 29.4415 259.309 29.3115C258.763 29.1815 258.269 28.9865 257.827 28.7265C256.683 27.9985 256.111 27.0365 256.111 25.8405C256.111 24.9045 256.423 23.9555 257.047 22.9935C257.697 22.0055 258.529 21.0695 259.543 20.1855C260.557 19.3015 261.623 18.5735 262.741 18.0015C263.417 17.6375 264.093 17.3775 264.769 17.2215C265.445 17.0655 266.043 16.9875 266.563 16.9875C267.473 16.9875 268.071 17.1695 268.357 17.5335C268.669 17.8715 268.825 18.2745 268.825 18.7425C268.825 19.2365 268.669 19.7175 268.357 20.1855C268.045 20.6275 267.603 21.0695 267.031 21.5115C266.043 22.3175 264.691 23.0325 262.975 23.6565C261.285 24.2805 259.543 24.7225 257.749 24.9825C257.489 25.5025 257.359 25.9835 257.359 26.4255C257.411 27.1535 257.788 27.6735 258.49 27.9855C259.218 28.2715 260.024 28.4145 260.908 28.4145C261.22 28.4145 261.519 28.4015 261.805 28.3755C262.091 28.3495 262.364 28.3105 262.624 28.2585C263.924 27.9985 265.25 27.5305 266.602 26.8545C267.98 26.1785 269.306 25.3985 270.58 24.5145C271.854 23.6305 272.998 22.7465 274.012 21.8625C274.168 21.8105 274.272 21.7845 274.324 21.7845C274.506 21.7845 274.597 21.8755 274.597 22.0575C274.597 22.1875 274.545 22.3175 274.441 22.4475C274.259 22.7595 273.882 23.1625 273.31 23.6565C272.764 24.1505 272.14 24.6575 271.438 25.1775C270.736 25.6715 270.047 26.1525 269.371 26.6205C268.721 27.0625 268.175 27.4005 267.733 27.6345C266.797 28.1545 265.731 28.5965 264.535 28.9605C263.339 29.3245 262.169 29.5065 261.025 29.5065ZM258.412 23.8905C259.244 23.6825 260.206 23.4225 261.298 23.1105C262.39 22.7725 263.43 22.3825 264.418 21.9405C265.406 21.4725 266.147 20.9655 266.641 20.4195C266.849 20.2115 266.992 20.0035 267.07 19.7955C267.148 19.5615 267.187 19.3665 267.187 19.2105C267.187 19.0805 267.135 18.9635 267.031 18.8595C266.953 18.7555 266.693 18.7035 266.251 18.7035C265.627 18.7035 264.821 18.9635 263.833 19.4835C262.845 19.9775 261.857 20.6275 260.869 21.4335C259.907 22.2135 259.088 23.0325 258.412 23.8905Z" fill="#BC9E59"/>
<path d="M270.145 30.2085C269.703 30.2085 269.482 30.0005 269.482 29.5845C269.482 29.3245 269.547 29.0385 269.677 28.7265C269.833 28.4145 270.015 28.0765 270.223 27.7125C270.561 27.1145 270.938 26.4905 271.354 25.8405C271.796 25.1905 272.173 24.6575 272.485 24.2415C272.745 23.9035 273.109 23.4225 273.577 22.7985C274.045 22.1745 274.487 21.5115 274.903 20.8095C275.475 19.8735 275.761 19.0935 275.761 18.4695C275.761 18.1315 275.657 17.8715 275.449 17.6895C275.345 17.5855 275.241 17.4685 275.137 17.3385C275.033 17.1825 274.981 17.0525 274.981 16.9485C274.981 16.6885 275.085 16.5585 275.293 16.5585C275.501 16.5585 275.696 16.6365 275.878 16.7925C276.06 16.8965 276.255 17.0395 276.463 17.2215C276.697 17.4035 276.905 17.6115 277.087 17.8455C277.165 17.9495 277.243 18.0535 277.321 18.1575C277.425 18.2355 277.503 18.3395 277.555 18.4695C277.633 18.5995 277.698 18.7425 277.75 18.8985C277.802 19.0285 277.828 19.1845 277.828 19.3665C277.828 19.7305 277.672 20.1725 277.36 20.6925C276.892 21.4985 276.333 22.2525 275.683 22.9545C275.059 23.6305 274.448 24.3065 273.85 24.9825C273.772 25.0865 273.681 25.1905 273.577 25.2945C273.499 25.3725 273.421 25.4635 273.343 25.5675C274.357 24.6315 275.449 23.6695 276.619 22.6815C277.815 21.6675 278.855 20.8745 279.739 20.3025C280.025 20.1205 280.402 19.9515 280.87 19.7955C281.338 19.6135 281.78 19.5225 282.196 19.5225C282.586 19.5225 282.924 19.6395 283.21 19.8735C283.522 20.0815 283.678 20.4845 283.678 21.0825C283.678 21.6025 283.574 22.2005 283.366 22.8765C283.158 23.5265 282.95 24.1245 282.742 24.6705C282.56 25.0865 282.417 25.4895 282.313 25.8795C282.209 26.2435 282.157 26.5685 282.157 26.8545C282.157 27.7645 282.651 28.2195 283.639 28.2195C283.899 28.2195 284.198 28.1935 284.536 28.1415C284.9 28.0635 285.29 27.9465 285.706 27.7905C287.032 27.2965 288.371 26.6075 289.723 25.7235C291.101 24.8395 292.336 23.9425 293.428 23.0325C293.558 22.9285 293.688 22.8375 293.818 22.7595C293.948 22.6555 294.065 22.5645 294.169 22.4865C294.299 22.3825 294.416 22.2915 294.52 22.2135C294.65 22.1095 294.793 21.9925 294.949 21.8625C295.105 21.8105 295.209 21.7845 295.261 21.7845C295.417 21.7845 295.495 21.8755 295.495 22.0575C295.495 22.2395 295.443 22.3955 295.339 22.5255C295.183 22.7335 294.806 23.1105 294.208 23.6565C293.61 24.2025 292.869 24.8135 291.985 25.4895C291.127 26.1655 290.178 26.8155 289.138 27.4395C288.124 28.0635 287.097 28.5575 286.057 28.9215C285.121 29.2335 284.146 29.3895 283.132 29.3895C282.352 29.3895 281.65 29.2075 281.026 28.8435C280.402 28.4795 280.09 27.8555 280.09 26.9715C280.09 26.4515 280.22 25.8405 280.48 25.1385C280.662 24.6705 280.857 24.1895 281.065 23.6955C281.299 23.2015 281.442 22.7075 281.494 22.2135C281.52 22.1095 281.533 22.0185 281.533 21.9405C281.533 21.8365 281.533 21.7585 281.533 21.7065C281.533 21.3945 281.481 21.1995 281.377 21.1215C281.299 21.0435 281.208 21.0045 281.104 21.0045C280.844 21.0045 280.519 21.1085 280.129 21.3165C279.765 21.4985 279.427 21.6935 279.115 21.9015C278.829 22.0835 278.374 22.4475 277.75 22.9935C277.152 23.5135 276.489 24.1115 275.761 24.7875C275.059 25.4375 274.383 26.0615 273.733 26.6595C273.317 27.0495 272.914 27.4525 272.524 27.8685C272.16 28.2585 271.822 28.6225 271.51 28.9605C271.172 29.3245 270.886 29.6235 270.652 29.8575C270.418 30.0915 270.249 30.2085 270.145 30.2085Z" fill="#BC9E59"/>
</svg>
